<mxfile host="app.diagrams.net" modified="2024-03-07T10:18:17.878Z" agent="Mozilla/5.0 (Windows NT 10.0; Win64; x64) AppleWebKit/537.36 (KHTML, like Gecko) Chrome/122.0.0.0 Safari/537.36" etag="t0ggA4QCNmlKLTAG1DqE" version="23.1.7" type="device">
  <diagram name="Page-1" id="c7558073-3199-34d8-9f00-42111426c3f3">
    <mxGraphModel dx="5967" dy="1823" grid="1" gridSize="10" guides="1" tooltips="1" connect="1" arrows="1" fold="1" page="1" pageScale="1" pageWidth="826" pageHeight="1169" background="none" math="0" shadow="0">
      <root>
        <mxCell id="0" />
        <mxCell id="1" parent="0" />
        <mxCell id="tN1LSsSEP52HRlPs5uld-96" value="&lt;font style=&quot;font-size: 26px;&quot;&gt;User Wise Activity Diagram&lt;/font&gt;" style="swimlane;whiteSpace=wrap;html=1;startSize=50;fontStyle=0;fillColor=#FFFFFF;strokeColor=#d4d4d4;strokeWidth=1;" vertex="1" parent="1">
          <mxGeometry x="-2390" y="190" width="910" height="855" as="geometry" />
        </mxCell>
        <mxCell id="tN1LSsSEP52HRlPs5uld-97" value="" style="ellipse;whiteSpace=wrap;html=1;aspect=fixed;fillColor=#fd0200;" vertex="1" parent="tN1LSsSEP52HRlPs5uld-96">
          <mxGeometry x="9" y="185" width="60" height="60" as="geometry" />
        </mxCell>
        <mxCell id="tN1LSsSEP52HRlPs5uld-98" style="edgeStyle=orthogonalEdgeStyle;rounded=0;orthogonalLoop=1;jettySize=auto;html=1;exitX=0.5;exitY=0;exitDx=0;exitDy=0;entryX=0;entryY=0.5;entryDx=0;entryDy=0;" edge="1" parent="tN1LSsSEP52HRlPs5uld-96" source="tN1LSsSEP52HRlPs5uld-99" target="tN1LSsSEP52HRlPs5uld-103">
          <mxGeometry relative="1" as="geometry" />
        </mxCell>
        <mxCell id="tN1LSsSEP52HRlPs5uld-99" value="" style="rhombus;whiteSpace=wrap;html=1;fillColor=#dae8fc;strokeColor=#6c8ebf;" vertex="1" parent="tN1LSsSEP52HRlPs5uld-96">
          <mxGeometry x="160" y="190" width="30" height="50" as="geometry" />
        </mxCell>
        <mxCell id="tN1LSsSEP52HRlPs5uld-100" value="" style="endArrow=classic;html=1;rounded=0;exitX=1.003;exitY=0.48;exitDx=0;exitDy=0;exitPerimeter=0;" edge="1" parent="tN1LSsSEP52HRlPs5uld-96" target="tN1LSsSEP52HRlPs5uld-99" source="tN1LSsSEP52HRlPs5uld-97">
          <mxGeometry width="50" height="50" relative="1" as="geometry">
            <mxPoint x="70" y="214" as="sourcePoint" />
            <mxPoint x="220" y="375" as="targetPoint" />
          </mxGeometry>
        </mxCell>
        <mxCell id="tN1LSsSEP52HRlPs5uld-101" style="edgeStyle=orthogonalEdgeStyle;rounded=0;orthogonalLoop=1;jettySize=auto;html=1;exitX=1;exitY=0.5;exitDx=0;exitDy=0;entryX=0;entryY=0.5;entryDx=0;entryDy=0;" edge="1" parent="tN1LSsSEP52HRlPs5uld-96" source="tN1LSsSEP52HRlPs5uld-103" target="tN1LSsSEP52HRlPs5uld-111">
          <mxGeometry relative="1" as="geometry" />
        </mxCell>
        <mxCell id="tN1LSsSEP52HRlPs5uld-102" value="&amp;nbsp;Validating data&amp;nbsp;" style="edgeLabel;html=1;align=center;verticalAlign=middle;resizable=0;points=[];" vertex="1" connectable="0" parent="tN1LSsSEP52HRlPs5uld-101">
          <mxGeometry x="-0.0276" y="1" relative="1" as="geometry">
            <mxPoint as="offset" />
          </mxGeometry>
        </mxCell>
        <mxCell id="tN1LSsSEP52HRlPs5uld-103" value="Registered" style="rounded=1;whiteSpace=wrap;html=1;fillColor=#dae8fc;strokeColor=#6c8ebf;" vertex="1" parent="tN1LSsSEP52HRlPs5uld-96">
          <mxGeometry x="260" y="110" width="120" height="60" as="geometry" />
        </mxCell>
        <mxCell id="tN1LSsSEP52HRlPs5uld-104" style="edgeStyle=orthogonalEdgeStyle;rounded=0;orthogonalLoop=1;jettySize=auto;html=1;entryX=0;entryY=0.5;entryDx=0;entryDy=0;" edge="1" parent="tN1LSsSEP52HRlPs5uld-96" source="tN1LSsSEP52HRlPs5uld-106" target="tN1LSsSEP52HRlPs5uld-121">
          <mxGeometry relative="1" as="geometry" />
        </mxCell>
        <mxCell id="tN1LSsSEP52HRlPs5uld-105" value="&amp;nbsp;Verifying&amp;nbsp; Data&amp;nbsp;" style="edgeLabel;html=1;align=center;verticalAlign=middle;resizable=0;points=[];" vertex="1" connectable="0" parent="tN1LSsSEP52HRlPs5uld-104">
          <mxGeometry x="-0.2307" y="-1" relative="1" as="geometry">
            <mxPoint as="offset" />
          </mxGeometry>
        </mxCell>
        <mxCell id="tN1LSsSEP52HRlPs5uld-106" value="Login" style="rounded=1;whiteSpace=wrap;html=1;fillColor=#dae8fc;strokeColor=#6c8ebf;" vertex="1" parent="tN1LSsSEP52HRlPs5uld-96">
          <mxGeometry x="260" y="260" width="120" height="60" as="geometry" />
        </mxCell>
        <mxCell id="tN1LSsSEP52HRlPs5uld-107" style="edgeStyle=orthogonalEdgeStyle;rounded=0;orthogonalLoop=1;jettySize=auto;html=1;exitX=0.5;exitY=0;exitDx=0;exitDy=0;entryX=0.5;entryY=0;entryDx=0;entryDy=0;" edge="1" parent="tN1LSsSEP52HRlPs5uld-96" source="tN1LSsSEP52HRlPs5uld-111" target="tN1LSsSEP52HRlPs5uld-103">
          <mxGeometry relative="1" as="geometry" />
        </mxCell>
        <mxCell id="tN1LSsSEP52HRlPs5uld-108" value="&amp;nbsp;Registration Failed&amp;nbsp;" style="edgeLabel;html=1;align=center;verticalAlign=middle;resizable=0;points=[];" vertex="1" connectable="0" parent="tN1LSsSEP52HRlPs5uld-107">
          <mxGeometry x="0.0679" y="2" relative="1" as="geometry">
            <mxPoint as="offset" />
          </mxGeometry>
        </mxCell>
        <mxCell id="tN1LSsSEP52HRlPs5uld-109" style="edgeStyle=orthogonalEdgeStyle;rounded=0;orthogonalLoop=1;jettySize=auto;html=1;exitX=0.5;exitY=1;exitDx=0;exitDy=0;entryX=0.5;entryY=0;entryDx=0;entryDy=0;" edge="1" parent="tN1LSsSEP52HRlPs5uld-96" source="tN1LSsSEP52HRlPs5uld-111" target="tN1LSsSEP52HRlPs5uld-106">
          <mxGeometry relative="1" as="geometry" />
        </mxCell>
        <mxCell id="tN1LSsSEP52HRlPs5uld-110" value="&amp;nbsp;Success Registration&amp;nbsp;" style="edgeLabel;html=1;align=center;verticalAlign=middle;resizable=0;points=[];" vertex="1" connectable="0" parent="tN1LSsSEP52HRlPs5uld-109">
          <mxGeometry x="0.0257" y="1" relative="1" as="geometry">
            <mxPoint as="offset" />
          </mxGeometry>
        </mxCell>
        <mxCell id="tN1LSsSEP52HRlPs5uld-111" value="" style="rhombus;whiteSpace=wrap;html=1;fillColor=#dae8fc;strokeColor=#6c8ebf;" vertex="1" parent="tN1LSsSEP52HRlPs5uld-96">
          <mxGeometry x="590" y="115" width="30" height="50" as="geometry" />
        </mxCell>
        <mxCell id="tN1LSsSEP52HRlPs5uld-112" value="&lt;b&gt;Is Registered&lt;/b&gt;" style="text;html=1;align=center;verticalAlign=middle;resizable=0;points=[];autosize=1;strokeColor=none;fillColor=none;" vertex="1" parent="tN1LSsSEP52HRlPs5uld-96">
          <mxGeometry x="185" y="200" width="100" height="30" as="geometry" />
        </mxCell>
        <mxCell id="tN1LSsSEP52HRlPs5uld-113" style="edgeStyle=orthogonalEdgeStyle;rounded=0;orthogonalLoop=1;jettySize=auto;html=1;entryX=-0.004;entryY=0.625;entryDx=0;entryDy=0;entryPerimeter=0;exitX=0.5;exitY=1;exitDx=0;exitDy=0;" edge="1" parent="tN1LSsSEP52HRlPs5uld-96" source="tN1LSsSEP52HRlPs5uld-99" target="tN1LSsSEP52HRlPs5uld-106">
          <mxGeometry relative="1" as="geometry" />
        </mxCell>
        <mxCell id="tN1LSsSEP52HRlPs5uld-114" value="&lt;b&gt;Is Valid data&lt;/b&gt;" style="text;html=1;align=center;verticalAlign=middle;resizable=0;points=[];autosize=1;strokeColor=none;fillColor=none;" vertex="1" parent="tN1LSsSEP52HRlPs5uld-96">
          <mxGeometry x="618" y="126" width="90" height="30" as="geometry" />
        </mxCell>
        <mxCell id="tN1LSsSEP52HRlPs5uld-115" value="" style="edgeStyle=orthogonalEdgeStyle;rounded=0;orthogonalLoop=1;jettySize=auto;html=1;" edge="1" parent="tN1LSsSEP52HRlPs5uld-96" source="tN1LSsSEP52HRlPs5uld-116" target="tN1LSsSEP52HRlPs5uld-122">
          <mxGeometry relative="1" as="geometry" />
        </mxCell>
        <mxCell id="tN1LSsSEP52HRlPs5uld-116" value="Homepage" style="rounded=1;whiteSpace=wrap;html=1;fillColor=#dae8fc;strokeColor=#6c8ebf;" vertex="1" parent="tN1LSsSEP52HRlPs5uld-96">
          <mxGeometry x="723" y="256" width="120" height="60" as="geometry" />
        </mxCell>
        <mxCell id="tN1LSsSEP52HRlPs5uld-117" style="edgeStyle=orthogonalEdgeStyle;rounded=0;orthogonalLoop=1;jettySize=auto;html=1;exitX=1;exitY=0.5;exitDx=0;exitDy=0;entryX=0;entryY=0.5;entryDx=0;entryDy=0;" edge="1" parent="tN1LSsSEP52HRlPs5uld-96" source="tN1LSsSEP52HRlPs5uld-121" target="tN1LSsSEP52HRlPs5uld-116">
          <mxGeometry relative="1" as="geometry" />
        </mxCell>
        <mxCell id="tN1LSsSEP52HRlPs5uld-118" value="&lt;p style=&quot;border: 0px solid rgb(227, 227, 227); box-sizing: border-box; --tw-border-spacing-x: 0; --tw-border-spacing-y: 0; --tw-translate-x: 0; --tw-translate-y: 0; --tw-rotate: 0; --tw-skew-x: 0; --tw-skew-y: 0; --tw-scale-x: 1; --tw-scale-y: 1; --tw-pan-x: ; --tw-pan-y: ; --tw-pinch-zoom: ; --tw-scroll-snap-strictness: proximity; --tw-gradient-from-position: ; --tw-gradient-via-position: ; --tw-gradient-to-position: ; --tw-ordinal: ; --tw-slashed-zero: ; --tw-numeric-figure: ; --tw-numeric-spacing: ; --tw-numeric-fraction: ; --tw-ring-inset: ; --tw-ring-offset-width: 0px; --tw-ring-offset-color: #fff; --tw-ring-color: rgba(69,89,164,.5); --tw-ring-offset-shadow: 0 0 transparent; --tw-ring-shadow: 0 0 transparent; --tw-shadow: 0 0 transparent; --tw-shadow-colored: 0 0 transparent; --tw-blur: ; --tw-brightness: ; --tw-contrast: ; --tw-grayscale: ; --tw-hue-rotate: ; --tw-invert: ; --tw-saturate: ; --tw-sepia: ; --tw-drop-shadow: ; --tw-backdrop-blur: ; --tw-backdrop-brightness: ; --tw-backdrop-contrast: ; --tw-backdrop-grayscale: ; --tw-backdrop-hue-rotate: ; --tw-backdrop-invert: ; --tw-backdrop-opacity: ; --tw-backdrop-saturate: ; --tw-backdrop-sepia: ; margin: 1.25em 0px; color: rgb(13, 13, 13); font-family: SÃ¶hne, ui-sans-serif, system-ui, -apple-system, &amp;quot;Segoe UI&amp;quot;, Roboto, Ubuntu, Cantarell, &amp;quot;Noto Sans&amp;quot;, sans-serif, &amp;quot;Helvetica Neue&amp;quot;, Arial, &amp;quot;Apple Color Emoji&amp;quot;, &amp;quot;Segoe UI Emoji&amp;quot;, &amp;quot;Segoe UI Symbol&amp;quot;, &amp;quot;Noto Color Emoji&amp;quot;; font-size: 16px; text-align: start;&quot;&gt;&lt;br&gt;&lt;/p&gt;" style="edgeLabel;html=1;align=center;verticalAlign=middle;resizable=0;points=[];" vertex="1" connectable="0" parent="tN1LSsSEP52HRlPs5uld-117">
          <mxGeometry x="-0.2893" y="1" relative="1" as="geometry">
            <mxPoint x="-31" y="11" as="offset" />
          </mxGeometry>
        </mxCell>
        <mxCell id="tN1LSsSEP52HRlPs5uld-119" value="&amp;nbsp;Successful Login&amp;nbsp;" style="edgeLabel;html=1;align=center;verticalAlign=middle;resizable=0;points=[];" vertex="1" connectable="0" parent="tN1LSsSEP52HRlPs5uld-117">
          <mxGeometry x="0.0118" y="-2" relative="1" as="geometry">
            <mxPoint as="offset" />
          </mxGeometry>
        </mxCell>
        <mxCell id="tN1LSsSEP52HRlPs5uld-120" style="edgeStyle=orthogonalEdgeStyle;rounded=0;orthogonalLoop=1;jettySize=auto;html=1;exitX=0.5;exitY=0;exitDx=0;exitDy=0;entryX=0.5;entryY=0;entryDx=0;entryDy=0;" edge="1" parent="tN1LSsSEP52HRlPs5uld-96" source="tN1LSsSEP52HRlPs5uld-121" target="tN1LSsSEP52HRlPs5uld-106">
          <mxGeometry relative="1" as="geometry" />
        </mxCell>
        <mxCell id="tN1LSsSEP52HRlPs5uld-121" value="" style="rhombus;whiteSpace=wrap;html=1;fillColor=#dae8fc;strokeColor=#6c8ebf;" vertex="1" parent="tN1LSsSEP52HRlPs5uld-96">
          <mxGeometry x="537" y="265" width="30" height="50" as="geometry" />
        </mxCell>
        <mxCell id="tN1LSsSEP52HRlPs5uld-122" value="" style="html=1;points=[];perimeter=orthogonalPerimeter;fillColor=strokeColor;rotation=90;" vertex="1" parent="tN1LSsSEP52HRlPs5uld-96">
          <mxGeometry x="538" y="125" width="5" height="510" as="geometry" />
        </mxCell>
        <mxCell id="tN1LSsSEP52HRlPs5uld-123" value="" style="html=1;points=[];perimeter=orthogonalPerimeter;fillColor=#CCCCCC;rotation=90;strokeColor=#CCCCCC;strokeWidth=1;" vertex="1" parent="tN1LSsSEP52HRlPs5uld-96">
          <mxGeometry x="538" y="328" width="5" height="510" as="geometry" />
        </mxCell>
        <mxCell id="tN1LSsSEP52HRlPs5uld-124" style="edgeStyle=orthogonalEdgeStyle;rounded=0;orthogonalLoop=1;jettySize=auto;html=1;" edge="1" parent="tN1LSsSEP52HRlPs5uld-96" source="tN1LSsSEP52HRlPs5uld-125">
          <mxGeometry relative="1" as="geometry">
            <mxPoint x="370" y="580" as="targetPoint" />
          </mxGeometry>
        </mxCell>
        <mxCell id="tN1LSsSEP52HRlPs5uld-125" value="Homepage" style="rounded=1;whiteSpace=wrap;html=1;fillColor=#dae8fc;strokeColor=#6c8ebf;" vertex="1" parent="tN1LSsSEP52HRlPs5uld-96">
          <mxGeometry x="310" y="458" width="120" height="60" as="geometry" />
        </mxCell>
        <mxCell id="tN1LSsSEP52HRlPs5uld-126" style="edgeStyle=orthogonalEdgeStyle;rounded=0;orthogonalLoop=1;jettySize=auto;html=1;" edge="1" parent="tN1LSsSEP52HRlPs5uld-96" source="tN1LSsSEP52HRlPs5uld-127">
          <mxGeometry relative="1" as="geometry">
            <mxPoint x="700" y="580" as="targetPoint" />
          </mxGeometry>
        </mxCell>
        <mxCell id="tN1LSsSEP52HRlPs5uld-127" value="Homepage" style="rounded=1;whiteSpace=wrap;html=1;fillColor=#dae8fc;strokeColor=#6c8ebf;" vertex="1" parent="tN1LSsSEP52HRlPs5uld-96">
          <mxGeometry x="640" y="455" width="120" height="60" as="geometry" />
        </mxCell>
        <mxCell id="tN1LSsSEP52HRlPs5uld-128" style="edgeStyle=orthogonalEdgeStyle;rounded=0;orthogonalLoop=1;jettySize=auto;html=1;entryX=1.067;entryY=0.836;entryDx=0;entryDy=0;entryPerimeter=0;startArrow=classic;startFill=1;endArrow=none;endFill=0;" edge="1" parent="tN1LSsSEP52HRlPs5uld-96" source="tN1LSsSEP52HRlPs5uld-125" target="tN1LSsSEP52HRlPs5uld-122">
          <mxGeometry relative="1" as="geometry" />
        </mxCell>
        <mxCell id="tN1LSsSEP52HRlPs5uld-129" style="edgeStyle=orthogonalEdgeStyle;rounded=0;orthogonalLoop=1;jettySize=auto;html=1;entryX=0.956;entryY=0.19;entryDx=0;entryDy=0;entryPerimeter=0;startArrow=classic;startFill=1;endArrow=none;endFill=0;" edge="1" parent="tN1LSsSEP52HRlPs5uld-96" source="tN1LSsSEP52HRlPs5uld-127" target="tN1LSsSEP52HRlPs5uld-122">
          <mxGeometry relative="1" as="geometry">
            <Array as="points">
              <mxPoint x="700" y="382" />
            </Array>
          </mxGeometry>
        </mxCell>
        <mxCell id="tN1LSsSEP52HRlPs5uld-130" value="" style="ellipse;whiteSpace=wrap;html=1;fillColor=#FFFFFF;strokeColor=#000000;strokeWidth=1;" vertex="1" parent="tN1LSsSEP52HRlPs5uld-96">
          <mxGeometry x="500.5" y="710" width="80" height="80" as="geometry" />
        </mxCell>
        <mxCell id="tN1LSsSEP52HRlPs5uld-131" value="" style="edgeStyle=orthogonalEdgeStyle;rounded=0;orthogonalLoop=1;jettySize=auto;html=1;" edge="1" parent="tN1LSsSEP52HRlPs5uld-96" source="tN1LSsSEP52HRlPs5uld-123" target="tN1LSsSEP52HRlPs5uld-130">
          <mxGeometry relative="1" as="geometry" />
        </mxCell>
        <mxCell id="tN1LSsSEP52HRlPs5uld-132" value="" style="ellipse;whiteSpace=wrap;html=1;aspect=fixed;fillColor=#fd0200;" vertex="1" parent="tN1LSsSEP52HRlPs5uld-96">
          <mxGeometry x="510.5" y="720" width="60" height="60" as="geometry" />
        </mxCell>
        <mxCell id="tN1LSsSEP52HRlPs5uld-235" value="&lt;b style=&quot;border-color: var(--border-color);&quot;&gt;Is&amp;nbsp;Logged&amp;nbsp;In&lt;/b&gt;" style="text;html=1;align=center;verticalAlign=middle;resizable=0;points=[];autosize=1;strokeColor=none;fillColor=none;" vertex="1" parent="tN1LSsSEP52HRlPs5uld-96">
          <mxGeometry x="507" y="315" width="90" height="30" as="geometry" />
        </mxCell>
        <mxCell id="tN1LSsSEP52HRlPs5uld-144" value="" style="html=1;shadow=0;dashed=0;shape=mxgraph.bootstrap.rrect;rSize=5;strokeColor=#DFDFDF;html=1;whiteSpace=wrap;fillColor=#FFFFFF;fontColor=#000000;" vertex="1" parent="1">
          <mxGeometry x="-1440" y="200" width="200" height="360" as="geometry" />
        </mxCell>
        <mxCell id="tN1LSsSEP52HRlPs5uld-145" value="&lt;b&gt;Diagram Symbols&lt;/b&gt;" style="html=1;shadow=0;dashed=0;shape=mxgraph.bootstrap.topButton;strokeColor=inherit;fillColor=#F7F7F7;rSize=5;perimeter=none;whiteSpace=wrap;resizeWidth=1;align=left;spacing=10;" vertex="1" parent="tN1LSsSEP52HRlPs5uld-144">
          <mxGeometry width="200" height="30" relative="1" as="geometry" />
        </mxCell>
        <mxCell id="tN1LSsSEP52HRlPs5uld-172" value="" style="strokeColor=inherit;fillColor=inherit;gradientColor=inherit;fontColor=inherit;html=1;shadow=0;dashed=0;perimeter=none;whiteSpace=wrap;resizeWidth=1;align=left;spacing=10;" vertex="1" parent="1">
          <mxGeometry x="-1440" y="230.00333333333333" width="100" height="42.5" as="geometry" />
        </mxCell>
        <mxCell id="tN1LSsSEP52HRlPs5uld-173" value="Start Activity" style="strokeColor=inherit;fillColor=inherit;gradientColor=inherit;fontColor=inherit;html=1;shadow=0;dashed=0;perimeter=none;whiteSpace=wrap;resizeWidth=1;align=left;spacing=10;" vertex="1" parent="1">
          <mxGeometry x="-1340" y="230.00333333333333" width="100" height="42.5" as="geometry" />
        </mxCell>
        <mxCell id="tN1LSsSEP52HRlPs5uld-175" value="" style="strokeColor=inherit;fillColor=inherit;gradientColor=inherit;fontColor=inherit;html=1;shadow=0;dashed=0;perimeter=none;whiteSpace=wrap;resizeWidth=1;align=left;spacing=10;" vertex="1" parent="1">
          <mxGeometry x="-1440" y="272.50333333333333" width="100" height="42.5" as="geometry" />
        </mxCell>
        <mxCell id="tN1LSsSEP52HRlPs5uld-176" value="End Activity" style="strokeColor=inherit;fillColor=inherit;gradientColor=inherit;fontColor=inherit;html=1;shadow=0;dashed=0;perimeter=none;whiteSpace=wrap;resizeWidth=1;align=left;spacing=10;" vertex="1" parent="1">
          <mxGeometry x="-1340" y="272.5" width="100" height="42.5" as="geometry" />
        </mxCell>
        <mxCell id="tN1LSsSEP52HRlPs5uld-177" value="" style="ellipse;whiteSpace=wrap;html=1;aspect=fixed;fillColor=#fd0200;" vertex="1" parent="1">
          <mxGeometry x="-1400" y="283.75" width="20" height="20" as="geometry" />
        </mxCell>
        <mxCell id="tN1LSsSEP52HRlPs5uld-178" value="" style="ellipse;whiteSpace=wrap;html=1;fillColor=none;strokeColor=#000000;strokeWidth=1;" vertex="1" parent="1">
          <mxGeometry x="-1405" y="278.75" width="30" height="30" as="geometry" />
        </mxCell>
        <mxCell id="tN1LSsSEP52HRlPs5uld-179" value="" style="strokeColor=inherit;fillColor=inherit;gradientColor=inherit;fontColor=inherit;html=1;shadow=0;dashed=0;perimeter=none;whiteSpace=wrap;resizeWidth=1;align=left;spacing=10;" vertex="1" parent="1">
          <mxGeometry x="-1440" y="315.00333333333333" width="100" height="42.5" as="geometry" />
        </mxCell>
        <mxCell id="tN1LSsSEP52HRlPs5uld-180" value="Navigation/Flow" style="strokeColor=inherit;fillColor=inherit;gradientColor=inherit;fontColor=inherit;html=1;shadow=0;dashed=0;perimeter=none;whiteSpace=wrap;resizeWidth=1;align=left;spacing=10;" vertex="1" parent="1">
          <mxGeometry x="-1340" y="315.00333333333333" width="100" height="42.5" as="geometry" />
        </mxCell>
        <mxCell id="tN1LSsSEP52HRlPs5uld-181" value="" style="endArrow=classic;html=1;rounded=0;exitX=1.003;exitY=0.48;exitDx=0;exitDy=0;exitPerimeter=0;" edge="1" parent="1">
          <mxGeometry width="50" height="50" relative="1" as="geometry">
            <mxPoint x="-1431" y="335.75" as="sourcePoint" />
            <mxPoint x="-1350" y="336" as="targetPoint" />
          </mxGeometry>
        </mxCell>
        <mxCell id="tN1LSsSEP52HRlPs5uld-208" value="" style="ellipse;whiteSpace=wrap;html=1;aspect=fixed;fillColor=#fd0200;" vertex="1" parent="1">
          <mxGeometry x="-1405" y="236.25333333333333" width="30" height="30" as="geometry" />
        </mxCell>
        <mxCell id="tN1LSsSEP52HRlPs5uld-213" value="" style="shape=partialRectangle;html=1;whiteSpace=wrap;connectable=0;strokeColor=inherit;overflow=hidden;fillColor=none;top=0;left=0;bottom=0;right=0;pointerEvents=1;fontSize=16;" vertex="1" parent="1">
          <mxGeometry x="-1330" y="521" width="20" height="41" as="geometry">
            <mxRectangle width="20" height="41" as="alternateBounds" />
          </mxGeometry>
        </mxCell>
        <mxCell id="tN1LSsSEP52HRlPs5uld-214" value="" style="shape=partialRectangle;html=1;whiteSpace=wrap;connectable=0;strokeColor=inherit;overflow=hidden;fillColor=none;top=0;left=0;bottom=0;right=0;pointerEvents=1;fontSize=16;" vertex="1" parent="1">
          <mxGeometry x="-1310" y="521" width="120" height="41" as="geometry">
            <mxRectangle width="120" height="41" as="alternateBounds" />
          </mxGeometry>
        </mxCell>
        <mxCell id="tN1LSsSEP52HRlPs5uld-215" value="" style="shape=partialRectangle;html=1;whiteSpace=wrap;connectable=0;strokeColor=inherit;overflow=hidden;fillColor=none;top=0;left=0;bottom=0;right=0;pointerEvents=1;fontSize=16;" vertex="1" parent="1">
          <mxGeometry x="-1290" y="711" width="140" height="41" as="geometry">
            <mxRectangle width="140" height="41" as="alternateBounds" />
          </mxGeometry>
        </mxCell>
        <mxCell id="tN1LSsSEP52HRlPs5uld-216" value="" style="strokeColor=inherit;fillColor=inherit;gradientColor=inherit;fontColor=inherit;html=1;shadow=0;dashed=0;perimeter=none;whiteSpace=wrap;resizeWidth=1;align=left;spacing=10;" vertex="1" parent="1">
          <mxGeometry x="-1440" y="357.50333333333333" width="100" height="42.5" as="geometry" />
        </mxCell>
        <mxCell id="tN1LSsSEP52HRlPs5uld-217" value="Conditional Diamond" style="strokeColor=inherit;fillColor=inherit;gradientColor=inherit;fontColor=inherit;html=1;shadow=0;dashed=0;perimeter=none;whiteSpace=wrap;resizeWidth=1;align=left;spacing=10;" vertex="1" parent="1">
          <mxGeometry x="-1340" y="357.50333333333333" width="100" height="42.5" as="geometry" />
        </mxCell>
        <mxCell id="tN1LSsSEP52HRlPs5uld-218" value="" style="strokeColor=inherit;fillColor=inherit;gradientColor=inherit;fontColor=inherit;html=1;shadow=0;dashed=0;perimeter=none;whiteSpace=wrap;resizeWidth=1;align=left;spacing=10;" vertex="1" parent="1">
          <mxGeometry x="-1440" y="400.00333333333333" width="100" height="42.5" as="geometry" />
        </mxCell>
        <mxCell id="tN1LSsSEP52HRlPs5uld-219" value="Process Step" style="strokeColor=inherit;fillColor=inherit;gradientColor=inherit;fontColor=inherit;html=1;shadow=0;dashed=0;perimeter=none;whiteSpace=wrap;resizeWidth=1;align=left;spacing=10;" vertex="1" parent="1">
          <mxGeometry x="-1340" y="400.00333333333333" width="100" height="42.5" as="geometry" />
        </mxCell>
        <mxCell id="tN1LSsSEP52HRlPs5uld-220" value="" style="strokeColor=inherit;fillColor=inherit;gradientColor=inherit;fontColor=inherit;html=1;shadow=0;dashed=0;perimeter=none;whiteSpace=wrap;resizeWidth=1;align=left;spacing=10;" vertex="1" parent="1">
          <mxGeometry x="-1440" y="436.25333333333333" width="100" height="42.5" as="geometry" />
        </mxCell>
        <mxCell id="tN1LSsSEP52HRlPs5uld-221" value="Fork" style="strokeColor=inherit;fillColor=inherit;gradientColor=inherit;fontColor=inherit;html=1;shadow=0;dashed=0;perimeter=none;whiteSpace=wrap;resizeWidth=1;align=left;spacing=10;" vertex="1" parent="1">
          <mxGeometry x="-1340" y="436.25333333333333" width="100" height="42.5" as="geometry" />
        </mxCell>
        <mxCell id="tN1LSsSEP52HRlPs5uld-222" value="" style="strokeColor=inherit;fillColor=inherit;gradientColor=inherit;fontColor=inherit;html=1;shadow=0;dashed=0;perimeter=none;whiteSpace=wrap;resizeWidth=1;align=left;spacing=10;" vertex="1" parent="1">
          <mxGeometry x="-1440" y="475.00333333333333" width="100" height="42.5" as="geometry" />
        </mxCell>
        <mxCell id="tN1LSsSEP52HRlPs5uld-223" value="Merge" style="strokeColor=inherit;fillColor=inherit;gradientColor=inherit;fontColor=inherit;html=1;shadow=0;dashed=0;perimeter=none;whiteSpace=wrap;resizeWidth=1;align=left;spacing=10;" vertex="1" parent="1">
          <mxGeometry x="-1340" y="474.00333333333333" width="100" height="42.5" as="geometry" />
        </mxCell>
        <mxCell id="tN1LSsSEP52HRlPs5uld-224" value="" style="strokeColor=inherit;fillColor=inherit;gradientColor=inherit;fontColor=inherit;html=1;shadow=0;dashed=0;perimeter=none;whiteSpace=wrap;resizeWidth=1;align=left;spacing=10;" vertex="1" parent="1">
          <mxGeometry x="-1440" y="516.5033333333333" width="100" height="42.5" as="geometry" />
        </mxCell>
        <mxCell id="tN1LSsSEP52HRlPs5uld-225" value="Navigational Comments" style="strokeColor=inherit;fillColor=inherit;gradientColor=inherit;fontColor=inherit;html=1;shadow=0;dashed=0;perimeter=none;whiteSpace=wrap;resizeWidth=1;align=left;spacing=10;" vertex="1" parent="1">
          <mxGeometry x="-1340" y="516.5033333333333" width="100" height="42.5" as="geometry" />
        </mxCell>
        <mxCell id="tN1LSsSEP52HRlPs5uld-230" value="" style="rhombus;whiteSpace=wrap;html=1;fillColor=#dae8fc;strokeColor=#6c8ebf;" vertex="1" parent="1">
          <mxGeometry x="-1397.5" y="361.88" width="15" height="33.75" as="geometry" />
        </mxCell>
        <mxCell id="tN1LSsSEP52HRlPs5uld-231" value="&lt;font style=&quot;font-size: 9px;&quot;&gt;Homepage&lt;/font&gt;" style="rounded=1;whiteSpace=wrap;html=1;fillColor=#dae8fc;strokeColor=#6c8ebf;" vertex="1" parent="1">
          <mxGeometry x="-1425" y="408" width="65" height="22" as="geometry" />
        </mxCell>
        <mxCell id="tN1LSsSEP52HRlPs5uld-247" value="" style="html=1;points=[];perimeter=orthogonalPerimeter;fillColor=strokeColor;rotation=90;strokeColor=#cccccc;" vertex="1" parent="1">
          <mxGeometry x="-1396.6399999999999" y="450" width="10" height="69.95" as="geometry" />
        </mxCell>
        <mxCell id="tN1LSsSEP52HRlPs5uld-248" style="rounded=0;orthogonalLoop=1;jettySize=auto;html=1;startArrow=none;startFill=0;endArrow=classic;endFill=1;" edge="1" parent="1">
          <mxGeometry relative="1" as="geometry">
            <mxPoint x="-1413.6" y="507.41633246527783" as="sourcePoint" />
            <mxPoint x="-1413.6" y="489.99" as="targetPoint" />
          </mxGeometry>
        </mxCell>
        <mxCell id="tN1LSsSEP52HRlPs5uld-249" style="rounded=0;orthogonalLoop=1;jettySize=auto;html=1;startArrow=none;startFill=0;endArrow=classic;endFill=1;" edge="1" parent="1">
          <mxGeometry relative="1" as="geometry">
            <mxPoint x="-1390.6399999999999" y="507.41633246527783" as="sourcePoint" />
            <mxPoint x="-1390.6399999999999" y="489.99" as="targetPoint" />
          </mxGeometry>
        </mxCell>
        <mxCell id="tN1LSsSEP52HRlPs5uld-250" style="rounded=0;orthogonalLoop=1;jettySize=auto;html=1;startArrow=none;startFill=0;endArrow=classic;endFill=1;" edge="1" parent="1">
          <mxGeometry relative="1" as="geometry">
            <mxPoint x="-1366.6" y="507.41633246527783" as="sourcePoint" />
            <mxPoint x="-1366.6" y="489.99" as="targetPoint" />
          </mxGeometry>
        </mxCell>
        <mxCell id="tN1LSsSEP52HRlPs5uld-251" value="" style="html=1;points=[];perimeter=orthogonalPerimeter;fillColor=strokeColor;rotation=90;" vertex="1" parent="1">
          <mxGeometry x="-1396.6399999999999" y="410.79999999999995" width="10" height="69.95" as="geometry" />
        </mxCell>
        <mxCell id="tN1LSsSEP52HRlPs5uld-252" style="rounded=0;orthogonalLoop=1;jettySize=auto;html=1;startArrow=classic;startFill=1;endArrow=none;endFill=0;" edge="1" parent="1">
          <mxGeometry relative="1" as="geometry">
            <mxPoint x="-1413.6" y="468.2163324652778" as="sourcePoint" />
            <mxPoint x="-1413.6" y="450.78999999999996" as="targetPoint" />
          </mxGeometry>
        </mxCell>
        <mxCell id="tN1LSsSEP52HRlPs5uld-253" style="rounded=0;orthogonalLoop=1;jettySize=auto;html=1;startArrow=classic;startFill=1;endArrow=none;endFill=0;" edge="1" parent="1">
          <mxGeometry relative="1" as="geometry">
            <mxPoint x="-1390.6399999999999" y="468.2163324652778" as="sourcePoint" />
            <mxPoint x="-1390.6399999999999" y="450.78999999999996" as="targetPoint" />
          </mxGeometry>
        </mxCell>
        <mxCell id="tN1LSsSEP52HRlPs5uld-254" style="rounded=0;orthogonalLoop=1;jettySize=auto;html=1;startArrow=classic;startFill=1;endArrow=none;endFill=0;" edge="1" parent="1">
          <mxGeometry relative="1" as="geometry">
            <mxPoint x="-1366.6" y="468.2163324652778" as="sourcePoint" />
            <mxPoint x="-1366.6" y="450.78999999999996" as="targetPoint" />
          </mxGeometry>
        </mxCell>
        <mxCell id="tN1LSsSEP52HRlPs5uld-255" value="" style="endArrow=none;html=1;rounded=0;" edge="1" parent="1">
          <mxGeometry width="50" height="50" relative="1" as="geometry">
            <mxPoint x="-1432.5" y="537.77" as="sourcePoint" />
            <mxPoint x="-1352.5" y="537.52" as="targetPoint" />
          </mxGeometry>
        </mxCell>
        <mxCell id="tN1LSsSEP52HRlPs5uld-256" value="&amp;nbsp;Comment&amp;nbsp;" style="edgeLabel;html=1;align=center;verticalAlign=middle;resizable=0;points=[];" vertex="1" connectable="0" parent="tN1LSsSEP52HRlPs5uld-255">
          <mxGeometry x="0.116" relative="1" as="geometry">
            <mxPoint x="-5" as="offset" />
          </mxGeometry>
        </mxCell>
      </root>
    </mxGraphModel>
  </diagram>
</mxfile>
